<svg height="16" stroke-linejoin="round" color="currentColor" viewBox="0 0 16 16" width="16">
    <path fill-rule="evenodd" clip-rule="evenodd" d="M14.4572 8.75C14.0853 11.9866 11.3362 14.5 8 14.5C4.41015 14.5 1.5 11.5899 1.5 8C1.5 4.66381 4.01342 1.91465 7.25 1.5428V7.75C7.25 8.30229 7.69772 8.75 8.25 8.75H14.4572ZM14.4572 7.25H8.75V1.5428C11.7405 1.88638 14.1136 4.2595 14.4572 7.25ZM16 8C16 12.4183 12.4183 16 8 16C3.58172 16 0 12.4183 0 8C0 3.58172 3.58172 0 8 0C12.4183 0 16 3.58172 16 8Z" fill="currentColor"></path>
</svg>