<svg fill="none" viewBox="0 0 691 390" width="100%"
    xmlns="http://www.w3.org/2000/svg">
    <g filter="url(#filter0_d_572_52081)">
        <rect fill="hsl(var(--background-200))" height="128" rx="6" width="256" x="139" y="102"></rect>
        <path d="M213.326 159.8H222.226V161.44H215.006V166.08H221.986V167.68H215.006V172.36H222.386V174H213.326V159.8ZM233.954 159.8V174H232.474L232.414 172.44C231.814 173.56 230.674 174.24 229.034 174.24C225.994 174.24 224.574 171.64 224.574 168.7C224.574 165.76 225.994 163.16 229.034 163.16C230.614 163.16 231.714 163.76 232.314 164.84V159.8H233.954ZM226.274 168.7C226.274 170.76 227.174 172.68 229.374 172.68C231.554 172.68 232.474 170.72 232.474 168.7C232.474 166.6 231.554 164.66 229.374 164.66C227.174 164.66 226.274 166.58 226.274 168.7ZM245.803 174H244.243V172.2C243.703 173.58 242.443 174.24 241.043 174.24C238.683 174.24 237.523 172.46 237.523 170.22V163.4H239.163V169.72C239.163 171.7 239.823 172.78 241.383 172.78C243.043 172.78 244.163 171.7 244.163 169.72V163.4H245.803V174ZM256.079 166.94C255.839 165.54 254.699 164.72 253.399 164.72C251.419 164.72 250.279 166.22 250.279 168.7C250.279 171.18 251.419 172.68 253.399 172.68C254.759 172.68 255.899 171.78 256.159 170.26L257.899 170.36C257.559 172.76 255.639 174.24 253.399 174.24C250.459 174.24 248.559 172.06 248.559 168.7C248.559 165.34 250.459 163.16 253.399 163.16C255.559 163.16 257.499 164.56 257.799 166.82L256.079 166.94ZM259.969 166.52C260.389 164.46 262.029 163.16 264.289 163.16C267.009 163.16 268.529 164.76 268.529 167.6V171.86C268.529 172.34 268.749 172.54 269.189 172.54H269.629V174H269.109C267.849 174 267.089 173.34 266.909 172.34C266.489 173.34 265.269 174.24 263.589 174.24C261.489 174.24 259.789 173.12 259.789 171.24C259.789 169.06 261.449 168.5 263.769 168.04L266.889 167.44C266.869 165.6 266.029 164.72 264.289 164.72C262.929 164.72 262.029 165.42 261.709 166.66L259.969 166.52ZM261.509 171.24C261.509 172.1 262.249 172.8 263.809 172.78C265.569 172.78 266.949 171.54 266.929 169.08V168.9L264.409 169.34C262.829 169.62 261.509 169.74 261.509 171.24ZM272.466 161H274.106V163.4H276.926V164.86H274.106V171.12C274.106 172 274.606 172.54 275.486 172.54H276.886V174H275.486C273.366 174 272.466 172.86 272.466 171.1V164.86H271.006V163.4H272.466V161ZM279.494 163.4H281.134V174H279.494V163.4ZM279.454 161.74V159.84H281.174V161.74H279.454ZM288.731 174.24C285.791 174.24 283.891 172.06 283.891 168.7C283.891 165.34 285.791 163.16 288.731 163.16C291.671 163.16 293.551 165.34 293.551 168.7C293.551 172.06 291.671 174.24 288.731 174.24ZM285.611 168.7C285.611 171.18 286.751 172.68 288.731 172.68C290.691 172.68 291.851 171.18 291.851 168.7C291.851 166.22 290.691 164.72 288.731 164.72C286.751 164.72 285.611 166.22 285.611 168.7ZM296.213 163.4H297.693L297.753 165.28C298.293 163.82 299.553 163.16 301.033 163.16C303.433 163.16 304.593 164.94 304.593 167.18V174H302.953V167.66C302.953 165.7 302.313 164.62 300.693 164.62C298.973 164.62 297.853 165.7 297.853 167.66V174H296.213V163.4ZM307.41 166.52C307.83 164.46 309.47 163.16 311.73 163.16C314.45 163.16 315.97 164.76 315.97 167.6V171.86C315.97 172.34 316.19 172.54 316.63 172.54H317.07V174H316.55C315.29 174 314.53 173.34 314.35 172.34C313.93 173.34 312.71 174.24 311.03 174.24C308.93 174.24 307.23 173.12 307.23 171.24C307.23 169.06 308.89 168.5 311.21 168.04L314.33 167.44C314.31 165.6 313.47 164.72 311.73 164.72C310.37 164.72 309.47 165.42 309.15 166.66L307.41 166.52ZM308.95 171.24C308.95 172.1 309.69 172.8 311.25 172.78C313.01 172.78 314.39 171.54 314.37 169.08V168.9L311.85 169.34C310.27 169.62 308.95 169.74 308.95 171.24ZM319.573 159.8H321.213V171.88C321.213 172.34 321.413 172.54 321.893 172.54H322.793V174H321.633C320.393 174 319.573 173.2 319.573 171.96V159.8Z" fill="hsl(var(--red-800))"></path>
        <rect height="129" rx="6.5" stroke="hsl(var(--gray-800))" stroke-opacity="0.08" width="257" x="138.5" y="101.5"></rect>
    </g>
    <g filter="url(#filter1_d_572_52081)">
        <rect fill="hsl(var(--background-200))" height="128" rx="6" width="256" x="139" y="254"></rect>
        <path d="M253.188 326H251.968L251.808 323.64C251.188 325.22 249.448 326.32 247.548 326.32C243.468 326.32 241.128 323.06 241.128 318.92C241.128 314.76 243.448 311.48 247.548 311.48C250.528 311.48 252.508 313.34 253.128 315.96L251.388 316.08C250.908 314.32 249.588 313.12 247.548 313.12C244.288 313.12 242.888 315.8 242.888 318.92C242.888 322.02 244.308 324.68 247.548 324.68C250.008 324.68 251.428 322.86 251.568 320.48H247.548V318.84H253.188V326ZM264.406 326H262.846V324.2C262.306 325.58 261.046 326.24 259.646 326.24C257.286 326.24 256.126 324.46 256.126 322.22V315.4H257.766V321.72C257.766 323.7 258.426 324.78 259.986 324.78C261.646 324.78 262.766 323.7 262.766 321.72V315.4H264.406V326ZM267.922 315.4H269.562V326H267.922V315.4ZM267.882 313.74V311.84H269.602V313.74H267.882ZM281.698 311.8V326H280.218L280.158 324.44C279.558 325.56 278.418 326.24 276.778 326.24C273.738 326.24 272.318 323.64 272.318 320.7C272.318 317.76 273.738 315.16 276.778 315.16C278.358 315.16 279.458 315.76 280.058 316.84V311.8H281.698ZM274.018 320.7C274.018 322.76 274.918 324.68 277.118 324.68C279.298 324.68 280.218 322.72 280.218 320.7C280.218 318.6 279.298 316.66 277.118 316.66C274.918 316.66 274.018 318.58 274.018 320.7ZM284.467 320.7C284.467 317.34 286.367 315.16 289.307 315.16C291.667 315.16 293.727 316.74 293.887 320.48L293.907 321.22H286.207C286.347 323.4 287.467 324.68 289.307 324.68C290.447 324.68 291.507 324 291.987 322.88L293.747 323C293.127 325 291.327 326.24 289.307 326.24C286.367 326.24 284.467 324.06 284.467 320.7ZM286.247 319.76H292.127C291.827 317.52 290.627 316.72 289.307 316.72C287.607 316.72 286.507 317.84 286.247 319.76Z" fill="hsl(var(--amber-800))"></path>
        <rect height="129" rx="6.5" stroke="hsl(var(--gray-800))" stroke-opacity="0.08" width="257" x="138.5" y="253.5"></rect>
    </g>
    <path d="M527.02 58.8H528.66V63.88C529.28 62.7 530.52 62.16 531.84 62.16C534.26 62.16 535.42 63.94 535.42 66.18V73H533.78V66.78C533.78 64.8 533.12 63.72 531.5 63.72C529.78 63.72 528.66 64.8 528.66 66.78V73H527.02V58.8ZM544.512 62.4V71.54H547.752V73H539.052V71.54H542.872V63.86H539.052V62.4H544.512ZM542.792 60.7V58.8H544.592V60.7H542.792ZM554.944 72.44C552.024 72.44 550.184 70.28 550.184 67.3C550.184 64.32 552.084 62.16 554.944 62.16C556.344 62.16 557.524 62.96 557.984 64.1V62.4H559.544V71.96C559.544 74.74 557.644 76.24 554.884 76.24C552.624 76.24 550.944 75 550.484 73.16L552.204 73.04C552.604 74.06 553.544 74.68 554.884 74.68C556.764 74.68 557.904 73.84 557.904 72.32V70.56C557.264 71.82 556.064 72.44 554.944 72.44ZM551.904 67.3C551.904 69.38 553.044 70.88 554.944 70.88C556.764 70.88 557.904 69.36 557.924 67.3C557.964 65.24 556.804 63.72 554.944 63.72C553.044 63.72 551.904 65.22 551.904 67.3ZM562.997 58.8H564.637V63.88C565.257 62.7 566.497 62.16 567.817 62.16C570.237 62.16 571.397 63.94 571.397 66.18V73H569.757V66.78C569.757 64.8 569.097 63.72 567.477 63.72C565.757 63.72 564.637 64.8 564.637 66.78V73H562.997V58.8Z" fill="hsl(var(--green-800))"></path>
    <path d="M69.0513 313.8H70.6913V318.88C71.3113 317.7 72.5513 317.16 73.8713 317.16C76.2913 317.16 77.4513 318.94 77.4513 321.18V328H75.8113V321.78C75.8113 319.8 75.1513 318.72 73.5313 318.72C71.8113 318.72 70.6913 319.8 70.6913 321.78V328H69.0513V313.8ZM86.5434 317.4V326.54H89.7834V328H81.0834V326.54H84.9034V318.86H81.0834V317.4H86.5434ZM84.8234 315.7V313.8H86.6234V315.7H84.8234ZM96.9756 327.44C94.0556 327.44 92.2156 325.28 92.2156 322.3C92.2156 319.32 94.1156 317.16 96.9756 317.16C98.3756 317.16 99.5556 317.96 100.016 319.1V317.4H101.576V326.96C101.576 329.74 99.6756 331.24 96.9156 331.24C94.6556 331.24 92.9756 330 92.5156 328.16L94.2356 328.04C94.6356 329.06 95.5756 329.68 96.9156 329.68C98.7956 329.68 99.9356 328.84 99.9356 327.32V325.56C99.2956 326.82 98.0956 327.44 96.9756 327.44ZM93.9356 322.3C93.9356 324.38 95.0756 325.88 96.9756 325.88C98.7956 325.88 99.9356 324.36 99.9556 322.3C99.9956 320.24 98.8356 318.72 96.9756 318.72C95.0756 318.72 93.9356 320.22 93.9356 322.3ZM105.028 313.8H106.668V318.88C107.288 317.7 108.528 317.16 109.848 317.16C112.268 317.16 113.428 318.94 113.428 321.18V328H111.788V321.78C111.788 319.8 111.128 318.72 109.508 318.72C107.788 318.72 106.668 319.8 106.668 321.78V328H105.028V313.8Z" fill="hsl(var(--green-800))"></path>
    <path d="M245.06 71.54H248.78V61.48C248.78 60.62 248.42 60.24 247.6 60.24H245.08V58.8H247.6C249.4 58.8 250.42 59.76 250.42 61.48V71.54H253.76V73H245.06V71.54ZM260.992 73.24C258.052 73.24 256.152 71.06 256.152 67.7C256.152 64.34 258.052 62.16 260.992 62.16C263.932 62.16 265.832 64.34 265.832 67.7C265.832 71.06 263.932 73.24 260.992 73.24ZM257.872 67.7C257.872 70.18 259.032 71.68 260.992 71.68C262.972 71.68 264.112 70.18 264.112 67.7C264.112 65.22 262.972 63.72 260.992 63.72C259.032 63.72 257.872 65.22 257.872 67.7ZM273.864 64.6L275.424 70.8L276.904 62.4H278.624L276.424 73H274.444L272.984 67.24L271.524 73H269.544L267.364 62.4H269.064L270.544 70.8L272.104 64.6H273.864Z" fill="hsl(var(--red-800))"></path>
    <path d="M81.0834 172.54H84.8034V162.48C84.8034 161.62 84.4434 161.24 83.6234 161.24H81.1034V159.8H83.6234C85.4234 159.8 86.4434 160.76 86.4434 162.48V172.54H89.7834V174H81.0834V172.54ZM97.0156 174.24C94.0756 174.24 92.1756 172.06 92.1756 168.7C92.1756 165.34 94.0756 163.16 97.0156 163.16C99.9556 163.16 101.856 165.34 101.856 168.7C101.856 172.06 99.9556 174.24 97.0156 174.24ZM93.8956 168.7C93.8956 171.18 95.0556 172.68 97.0156 172.68C98.9956 172.68 100.136 171.18 100.136 168.7C100.136 166.22 98.9956 164.72 97.0156 164.72C95.0556 164.72 93.8956 166.22 93.8956 168.7ZM109.888 165.6L111.448 171.8L112.928 163.4H114.648L112.448 174H110.468L109.008 168.24L107.548 174H105.568L103.388 163.4H105.088L106.568 171.8L108.128 165.6H109.888Z" fill="hsl(var(--red-800))"></path>
    <g filter="url(#filter2_d_572_52081)">
        <rect fill="hsl(var(--background-200))" height="128" rx="6" width="256" x="419" y="254"></rect>
        <path d="M485.92 311.8H487.6V326H485.92V311.8ZM491.287 315.4H492.767L492.827 317.28C493.367 315.82 494.627 315.16 496.107 315.16C498.507 315.16 499.667 316.94 499.667 319.18V326H498.027V319.66C498.027 317.7 497.387 316.62 495.767 316.62C494.047 316.62 492.927 317.7 492.927 319.66V326H491.287V315.4ZM503.812 314.68C503.812 312.94 504.712 311.8 506.632 311.8H508.252V313.24H506.632C505.932 313.24 505.452 313.8 505.452 314.68V315.4H508.112V316.86H505.452V326H503.812V316.86H502.372V315.4H503.812V314.68ZM514.391 326.24C511.451 326.24 509.551 324.06 509.551 320.7C509.551 317.34 511.451 315.16 514.391 315.16C517.331 315.16 519.211 317.34 519.211 320.7C519.211 324.06 517.331 326.24 514.391 326.24ZM511.271 320.7C511.271 323.18 512.411 324.68 514.391 324.68C516.351 324.68 517.511 323.18 517.511 320.7C517.511 318.22 516.351 316.72 514.391 316.72C512.411 316.72 511.271 318.22 511.271 320.7ZM521.873 315.4H523.313L523.373 317.36C523.733 316.02 524.533 315.4 525.913 315.4H526.933V316.84H525.913C524.293 316.84 523.513 317.84 523.513 319.68V326H521.873V315.4ZM529.412 315.4H530.892L530.952 317.2C531.452 315.9 532.552 315.16 534.032 315.16C535.552 315.16 536.652 315.98 537.112 317.4C537.572 315.96 538.692 315.16 540.352 315.16C542.472 315.16 543.712 316.64 543.712 319.18V326H542.072V319.66C542.072 317.72 541.312 316.62 540.012 316.62C538.352 316.62 537.372 317.74 537.372 319.68V326H535.732V319.66C535.732 317.76 534.972 316.62 533.692 316.62C532.052 316.62 531.052 317.78 531.052 319.66V326H529.412V315.4ZM546.528 318.52C546.948 316.46 548.588 315.16 550.848 315.16C553.568 315.16 555.088 316.76 555.088 319.6V323.86C555.088 324.34 555.308 324.54 555.748 324.54H556.188V326H555.668C554.408 326 553.648 325.34 553.468 324.34C553.048 325.34 551.828 326.24 550.148 326.24C548.048 326.24 546.348 325.12 546.348 323.24C546.348 321.06 548.008 320.5 550.328 320.04L553.448 319.44C553.428 317.6 552.588 316.72 550.848 316.72C549.488 316.72 548.588 317.42 548.268 318.66L546.528 318.52ZM548.068 323.24C548.068 324.1 548.808 324.8 550.368 324.78C552.128 324.78 553.508 323.54 553.488 321.08V320.9L550.968 321.34C549.388 321.62 548.068 321.74 548.068 323.24ZM559.025 313H560.665V315.4H563.485V316.86H560.665V323.12C560.665 324 561.165 324.54 562.045 324.54H563.445V326H562.045C559.925 326 559.025 324.86 559.025 323.1V316.86H557.565V315.4H559.025V313ZM566.053 315.4H567.693V326H566.053V315.4ZM566.013 313.74V311.84H567.733V313.74H566.013ZM575.289 326.24C572.349 326.24 570.449 324.06 570.449 320.7C570.449 317.34 572.349 315.16 575.289 315.16C578.229 315.16 580.109 317.34 580.109 320.7C580.109 324.06 578.229 326.24 575.289 326.24ZM572.169 320.7C572.169 323.18 573.309 324.68 575.289 324.68C577.249 324.68 578.409 323.18 578.409 320.7C578.409 318.22 577.249 316.72 575.289 316.72C573.309 316.72 572.169 318.22 572.169 320.7ZM582.772 315.4H584.252L584.312 317.28C584.852 315.82 586.112 315.16 587.592 315.16C589.992 315.16 591.152 316.94 591.152 319.18V326H589.512V319.66C589.512 317.7 588.872 316.62 587.252 316.62C585.532 316.62 584.412 317.7 584.412 319.66V326H582.772V315.4ZM593.969 318.52C594.389 316.46 596.029 315.16 598.289 315.16C601.009 315.16 602.529 316.76 602.529 319.6V323.86C602.529 324.34 602.749 324.54 603.189 324.54H603.629V326H603.109C601.849 326 601.089 325.34 600.909 324.34C600.489 325.34 599.269 326.24 597.589 326.24C595.489 326.24 593.789 325.12 593.789 323.24C593.789 321.06 595.449 320.5 597.769 320.04L600.889 319.44C600.869 317.6 600.029 316.72 598.289 316.72C596.929 316.72 596.029 317.42 595.709 318.66L593.969 318.52ZM595.509 323.24C595.509 324.1 596.249 324.8 597.809 324.78C599.569 324.78 600.949 323.54 600.929 321.08V320.9L598.409 321.34C596.829 321.62 595.509 321.74 595.509 323.24ZM606.132 311.8H607.772V323.88C607.772 324.34 607.972 324.54 608.452 324.54H609.352V326H608.192C606.952 326 606.132 325.2 606.132 323.96V311.8Z" fill="hsl(var(--green-800))"></path>
        <rect height="129" rx="6.5" stroke="hsl(var(--gray-800))" stroke-opacity="0.08" width="257" x="418.5" y="253.5"></rect>
    </g>
    <g filter="url(#filter3_d_572_52081)">
        <rect fill="hsl(var(--background-200))" height="128" rx="6" width="256" x="419" y="102"></rect>
        <path d="M495.104 174V159.8H499.964C503.304 159.8 504.984 161.1 504.984 163.72C504.984 165.32 504.044 166.4 502.484 166.68C504.424 166.94 505.584 168.16 505.584 170C505.584 172.58 503.864 174 500.764 174H495.104ZM496.784 172.36H500.764C502.744 172.36 503.824 171.52 503.824 170C503.824 168.48 502.724 167.6 500.764 167.6H496.784V172.36ZM496.784 165.96H499.964C502.064 165.96 503.224 165.16 503.224 163.72C503.224 162.2 502.144 161.44 499.964 161.44H496.784V165.96ZM508.655 159.8H510.295V171.88C510.295 172.34 510.495 172.54 510.975 172.54H511.875V174H510.715C509.475 174 508.655 173.2 508.655 171.96V159.8ZM513.856 166.52C514.276 164.46 515.916 163.16 518.176 163.16C520.896 163.16 522.416 164.76 522.416 167.6V171.86C522.416 172.34 522.636 172.54 523.076 172.54H523.516V174H522.996C521.736 174 520.976 173.34 520.796 172.34C520.376 173.34 519.156 174.24 517.476 174.24C515.376 174.24 513.676 173.12 513.676 171.24C513.676 169.06 515.336 168.5 517.656 168.04L520.776 167.44C520.756 165.6 519.916 164.72 518.176 164.72C516.816 164.72 515.916 165.42 515.596 166.66L513.856 166.52ZM515.396 171.24C515.396 172.1 516.136 172.8 517.696 172.78C519.456 172.78 520.836 171.54 520.816 169.08V168.9L518.296 169.34C516.716 169.62 515.396 169.74 515.396 171.24ZM525.823 163.4H527.303L527.363 165.28C527.903 163.82 529.163 163.16 530.643 163.16C533.043 163.16 534.203 164.94 534.203 167.18V174H532.563V167.66C532.563 165.7 531.923 164.62 530.303 164.62C528.583 164.62 527.463 165.7 527.463 167.66V174H525.823V163.4ZM537.6 159.8H539.24V169.14L544.4 163.4H546.62L542.44 167.9L546.84 174H544.82L541.32 169.02L539.24 171.26V174H537.6V159.8ZM555.93 169.36C556.27 171.28 557.65 172.6 559.91 172.6C561.75 172.6 562.99 171.84 562.99 170.42C562.99 168.98 561.75 168.1 558.89 167.36C556.53 166.76 554.47 165.64 554.47 163.36C554.47 160.98 556.39 159.48 559.11 159.48C562.15 159.48 564.17 161.38 564.45 163.98L562.69 164.1C562.45 162.32 561.05 161.12 559.09 161.12C557.43 161.12 556.23 161.98 556.23 163.36C556.23 165.1 558.25 165.58 560.11 166.1C562.71 166.82 564.75 168.1 564.75 170.26C564.75 172.86 562.35 174.24 559.77 174.24C556.67 174.24 554.39 172.32 554.17 169.48L555.93 169.36ZM567.796 159.8H569.436V171.88C569.436 172.34 569.636 172.54 570.116 172.54H571.016V174H569.856C568.616 174 567.796 173.2 567.796 171.96V159.8ZM572.996 166.52C573.416 164.46 575.056 163.16 577.316 163.16C580.036 163.16 581.556 164.76 581.556 167.6V171.86C581.556 172.34 581.776 172.54 582.216 172.54H582.656V174H582.136C580.876 174 580.116 173.34 579.936 172.34C579.516 173.34 578.296 174.24 576.616 174.24C574.516 174.24 572.816 173.12 572.816 171.24C572.816 169.06 574.476 168.5 576.796 168.04L579.916 167.44C579.896 165.6 579.056 164.72 577.316 164.72C575.956 164.72 575.056 165.42 574.736 166.66L572.996 166.52ZM574.536 171.24C574.536 172.1 575.276 172.8 576.836 172.78C578.596 172.78 579.976 171.54 579.956 169.08V168.9L577.436 169.34C575.856 169.62 574.536 169.74 574.536 171.24ZM585.493 161H587.133V163.4H589.953V164.86H587.133V171.12C587.133 172 587.633 172.54 588.513 172.54H589.913V174H588.513C586.393 174 585.493 172.86 585.493 171.1V164.86H584.033V163.4H585.493V161ZM591.371 168.7C591.371 165.34 593.271 163.16 596.211 163.16C598.571 163.16 600.631 164.74 600.791 168.48L600.811 169.22H593.111C593.251 171.4 594.371 172.68 596.211 172.68C597.351 172.68 598.411 172 598.891 170.88L600.651 171C600.031 173 598.231 174.24 596.211 174.24C593.271 174.24 591.371 172.06 591.371 168.7ZM593.151 167.76H599.031C598.731 165.52 597.531 164.72 596.211 164.72C594.511 164.72 593.411 165.84 593.151 167.76Z" fill="hsl(var(--amber-800))"></path>
        <rect height="129" rx="6.5" stroke="hsl(var(--gray-800))" stroke-opacity="0.08" width="257" x="418.5" y="101.5"></rect>
    </g>
    <path d="M350.657 16.52V23.832H353.249V25H346.289V23.832H349.345V17.688H346.289V16.52H350.657ZM349.281 15.16V13.64H350.721V15.16H349.281ZM355.77 16.52H356.97L357.002 18.008C357.434 16.84 358.442 16.328 359.626 16.328C361.546 16.328 362.49 17.752 362.49 19.544V25H361.178V19.928C361.178 18.36 360.65 17.496 359.354 17.496C357.978 17.496 357.082 18.36 357.082 19.928V25H355.77V16.52ZM367.284 14.28H368.596V16.52H371.844V17.688H368.596V22.696C368.596 23.4 368.996 23.832 369.7 23.832H371.812V25H369.7C368.004 25 367.284 24.088 367.284 22.68V17.688H365.012V16.52H367.284V14.28ZM381.486 25H380.238L380.222 23.576C379.79 24.68 378.798 25.192 377.678 25.192C375.79 25.192 374.862 23.768 374.862 21.976V16.52H376.174V21.576C376.174 23.16 376.702 24.024 377.95 24.024C379.278 24.024 380.174 23.16 380.174 21.576V16.52H381.486V25ZM389.032 16.52V23.832H391.624V25H384.664V23.832H387.72V17.688H384.664V16.52H389.032ZM387.656 15.16V13.64H389.096V15.16H387.656ZM396.065 14.28H397.377V16.52H400.625V17.688H397.377V22.696C397.377 23.4 397.777 23.832 398.481 23.832H400.593V25H398.481C396.785 25 396.065 24.088 396.065 22.68V17.688H393.793V16.52H396.065V14.28ZM408.219 16.52V23.832H410.811V25H403.851V23.832H406.907V17.688H403.851V16.52H408.219ZM406.843 15.16V13.64H408.283V15.16H406.843ZM420.517 16.52L417.413 25H415.781L412.677 16.52H414.085L416.597 23.624L419.109 16.52H420.517ZM422.463 20.76C422.463 18.072 423.983 16.328 426.335 16.328C428.223 16.328 429.871 17.592 429.999 20.584L430.015 21.176H423.855C423.967 22.92 424.863 23.944 426.335 23.944C427.247 23.944 428.095 23.4 428.479 22.504L429.887 22.6C429.391 24.2 427.951 25.192 426.335 25.192C423.983 25.192 422.463 23.448 422.463 20.76ZM423.887 20.008H428.591C428.351 18.216 427.391 17.576 426.335 17.576C424.975 17.576 424.095 18.472 423.887 20.008ZM432.52 16.52H433.72L433.752 18.008C434.184 16.84 435.192 16.328 436.376 16.328C438.296 16.328 439.24 17.752 439.24 19.544V25H437.928V19.928C437.928 18.36 437.4 17.496 436.104 17.496C434.728 17.496 433.832 18.36 433.832 19.928V25H432.52V16.52ZM441.65 20.76C441.65 18.072 443.17 16.328 445.522 16.328C447.41 16.328 449.058 17.592 449.186 20.584L449.202 21.176H443.042C443.154 22.92 444.05 23.944 445.522 23.944C446.434 23.944 447.282 23.4 447.666 22.504L449.074 22.6C448.578 24.2 447.138 25.192 445.522 25.192C443.17 25.192 441.65 23.448 441.65 20.76ZM443.074 20.008H447.778C447.538 18.216 446.578 17.576 445.522 17.576C444.162 17.576 443.282 18.472 443.074 20.008ZM457.068 19.128C456.876 18.152 455.948 17.576 454.86 17.576C453.948 17.576 453.132 18.04 453.132 18.92C453.132 19.848 454.204 20.056 455.18 20.328C456.796 20.728 458.444 21.24 458.444 22.84C458.444 24.488 456.828 25.192 455.148 25.192C453.196 25.192 451.612 24.088 451.484 22.344L452.844 22.248C453.004 23.272 453.948 23.944 455.148 23.944C456.092 23.944 457.068 23.688 457.068 22.776C457.068 21.816 455.852 21.688 454.94 21.464C453.372 21.08 451.756 20.536 451.756 19C451.756 17.288 453.26 16.328 455.004 16.328C456.764 16.328 458.108 17.4 458.38 19.032L457.068 19.128ZM466.662 19.128C466.47 18.152 465.542 17.576 464.454 17.576C463.542 17.576 462.726 18.04 462.726 18.92C462.726 19.848 463.798 20.056 464.774 20.328C466.39 20.728 468.038 21.24 468.038 22.84C468.038 24.488 466.422 25.192 464.742 25.192C462.79 25.192 461.206 24.088 461.078 22.344L462.438 22.248C462.598 23.272 463.542 23.944 464.742 23.944C465.686 23.944 466.662 23.688 466.662 22.776C466.662 21.816 465.446 21.688 464.534 21.464C462.966 21.08 461.35 20.536 461.35 19C461.35 17.288 462.854 16.328 464.598 16.328C466.358 16.328 467.702 17.4 467.974 19.032L466.662 19.128Z" fill="hsl(var(--gray-800))"></path>
    <path d="M22.52 327.125H29.832V324.533H31V331.493H29.832V328.437H23.688V331.493H22.52V327.125ZM21.16 328.501H19.64V327.061H21.16V328.501ZM22.52 322.011V320.811L24.008 320.779C22.84 320.347 22.328 319.339 22.328 318.155C22.328 316.235 23.752 315.291 25.544 315.291H31V316.603H25.928C24.36 316.603 23.496 317.131 23.496 318.427C23.496 319.803 24.36 320.699 25.928 320.699H31V322.011H22.52ZM21.944 310.545C20.552 310.545 19.64 309.825 19.64 308.273V306.177H20.792V308.273C20.792 308.833 21.24 309.233 21.944 309.233H23V306.273H24.168V309.233H31V310.545H24.168V312.497H23V310.545H21.944ZM31.192 299.559C31.192 301.911 29.448 303.431 26.76 303.431C24.072 303.431 22.328 301.911 22.328 299.559C22.328 297.207 24.072 295.687 26.76 295.687C29.448 295.687 31.192 297.207 31.192 299.559ZM26.76 302.055C28.744 302.055 29.944 301.127 29.944 299.559C29.944 297.975 28.744 297.063 26.76 297.063C24.776 297.063 23.576 297.975 23.576 299.559C23.576 301.127 24.776 302.055 26.76 302.055ZM22.52 290.11L24.12 290.014C23.016 289.71 22.52 289.006 22.52 287.886V286.11H23.672V287.886C23.672 289.198 24.472 289.806 25.944 289.806H29.832V287.022H31V293.326H29.832V291.118H23.688V293.326H22.52V290.11ZM22.52 284.404V283.22L23.704 283.172C22.728 282.82 22.328 282.324 22.328 281.572C22.328 280.82 22.904 280.228 23.944 279.956C22.776 279.62 22.328 279.076 22.328 278.244C22.328 276.964 23.48 276.244 25.544 276.244H31V277.556H25.928C24.104 277.556 23.496 277.796 23.496 278.468C23.496 279.252 24.312 279.668 25.944 279.668H31V280.98H25.928C24.12 280.98 23.496 281.236 23.496 282.004C23.496 282.708 24.312 283.092 25.928 283.092H31V284.404H22.52ZM25.016 274.378C23.416 274.074 22.328 272.698 22.328 270.938C22.328 268.89 23.512 267.53 25.88 267.53H29.288C29.672 267.53 29.832 267.37 29.832 267.002V266.65H31V267.082C31 268.074 30.472 268.682 29.672 268.826C30.472 269.162 31.192 270.138 31.192 271.498C31.192 273.178 30.296 274.522 28.792 274.522C27.048 274.522 26.6 273.21 26.232 271.354L25.752 268.842C24.28 268.858 23.576 269.674 23.576 270.938C23.576 271.994 24.216 272.762 25.128 272.97L25.016 274.378ZM28.792 273.146C29.48 273.146 30.04 272.57 30.024 271.322C30.024 269.914 29.032 268.81 27.368 268.81H26.92L27.272 270.842C27.496 272.09 27.592 273.146 28.792 273.146ZM20.28 262.528V261.216H22.52V257.968H23.688V261.216H28.696C29.4 261.216 29.832 260.816 29.832 260.112V258H31V260.112C31 261.808 30.088 262.528 28.68 262.528H23.688V264.8H22.52V262.528H20.28ZM22.52 250.375H29.832V247.783H31V254.743H29.832V251.687H23.688V254.743H22.52V250.375ZM21.16 251.751H19.64V250.311H21.16V251.751ZM31.192 241.997C31.192 244.349 29.448 245.869 26.76 245.869C24.072 245.869 22.328 244.349 22.328 241.997C22.328 239.645 24.072 238.125 26.76 238.125C29.448 238.125 31.192 239.645 31.192 241.997ZM26.76 244.493C28.744 244.493 29.944 243.565 29.944 241.997C29.944 240.413 28.744 239.501 26.76 239.501C24.776 239.501 23.576 240.413 23.576 241.997C23.576 243.565 24.776 244.493 26.76 244.493ZM22.52 235.667V234.467L24.008 234.435C22.84 234.003 22.328 232.995 22.328 231.811C22.328 229.891 23.752 228.947 25.544 228.947H31V230.259H25.928C24.36 230.259 23.496 230.787 23.496 232.083C23.496 233.459 24.36 234.355 25.928 234.355H31V235.667H22.52ZM19.64 209.712H31V210.896L29.752 210.944C30.648 211.424 31.192 212.336 31.192 213.648C31.192 216.096 29.112 217.232 26.76 217.232C24.408 217.232 22.328 216.096 22.328 213.648C22.328 212.4 22.808 211.504 23.672 211.024H19.64V209.712ZM26.76 215.856C28.408 215.856 29.944 215.152 29.944 213.376C29.944 211.648 28.376 210.912 26.76 210.912C25.08 210.912 23.528 211.648 23.528 213.376C23.528 215.152 25.064 215.856 26.76 215.856ZM26.76 207.35C24.072 207.35 22.328 205.83 22.328 203.478C22.328 201.59 23.592 199.942 26.584 199.814L27.176 199.798V205.958C28.92 205.846 29.944 204.95 29.944 203.478C29.944 202.566 29.4 201.718 28.504 201.334L28.6 199.926C30.2 200.422 31.192 201.862 31.192 203.478C31.192 205.83 29.448 207.35 26.76 207.35ZM26.008 205.926V201.222C24.216 201.462 23.576 202.422 23.576 203.478C23.576 204.838 24.472 205.718 26.008 205.926ZM22.52 197.292V196.092L24.008 196.06C22.84 195.628 22.328 194.62 22.328 193.436C22.328 191.516 23.752 190.572 25.544 190.572H31V191.884H25.928C24.36 191.884 23.496 192.412 23.496 193.708C23.496 195.084 24.36 195.98 25.928 195.98H31V197.292H22.52ZM25.128 182.338C24.152 182.53 23.576 183.458 23.576 184.546C23.576 185.458 24.04 186.274 24.92 186.274C25.848 186.274 26.056 185.202 26.328 184.226C26.728 182.61 27.24 180.962 28.84 180.962C30.488 180.962 31.192 182.578 31.192 184.258C31.192 186.21 30.088 187.794 28.344 187.922L28.248 186.562C29.272 186.402 29.944 185.458 29.944 184.258C29.944 183.314 29.688 182.338 28.776 182.338C27.816 182.338 27.688 183.554 27.464 184.466C27.08 186.034 26.536 187.65 25 187.65C23.288 187.65 22.328 186.146 22.328 184.402C22.328 182.642 23.4 181.298 25.032 181.026L25.128 182.338ZM22.52 173.625H29.832V171.033H31V177.993H29.832V174.937H23.688V177.993H22.52V173.625ZM21.16 175.001H19.64V173.561H21.16V175.001ZM20.28 166.591V165.279H22.52V162.031H23.688V165.279H28.696C29.4 165.279 29.832 164.879 29.832 164.175V162.063H31V164.175C31 165.871 30.088 166.591 28.68 166.591H23.688V168.863H22.52V166.591H20.28ZM22.52 159.525V158.133L29.592 155.557L22.52 153.061V151.669L32.072 155.109C32.984 155.429 33.4 156.037 33.4 156.997V158.005H32.232V157.141C32.232 156.709 32.072 156.437 31.624 156.277L30.84 155.973V156.421L22.52 159.525Z" fill="hsl(var(--gray-800))"></path>
    <defs>
        <filter color-interpolation-filters="sRGB" filterUnits="userSpaceOnUse" height="134" id="filter0_d_572_52081" width="262" x="136" y="100">
            <feFlood flood-opacity="0" result="BackgroundImageFix"></feFlood>
            <feColorMatrix in="SourceAlpha" result="hardAlpha" type="matrix" values="0 0 0 0 0 0 0 0 0 0 0 0 0 0 0 0 0 0 127 0"></feColorMatrix>
            <feOffset dy="1"></feOffset>
            <feGaussianBlur stdDeviation="1"></feGaussianBlur>
            <feColorMatrix type="matrix" values="0 0 0 0 0 0 0 0 0 0 0 0 0 0 0 0 0 0 0.04 0"></feColorMatrix>
            <feBlend in2="BackgroundImageFix" mode="normal" result="effect1_dropShadow_572_52081"></feBlend>
            <feBlend in="SourceGraphic" in2="effect1_dropShadow_572_52081" mode="normal" result="shape"></feBlend>
        </filter>
        <filter color-interpolation-filters="sRGB" filterUnits="userSpaceOnUse" height="134" id="filter1_d_572_52081" width="262" x="136" y="252">
            <feFlood flood-opacity="0" result="BackgroundImageFix"></feFlood>
            <feColorMatrix in="SourceAlpha" result="hardAlpha" type="matrix" values="0 0 0 0 0 0 0 0 0 0 0 0 0 0 0 0 0 0 127 0"></feColorMatrix>
            <feOffset dy="1"></feOffset>
            <feGaussianBlur stdDeviation="1"></feGaussianBlur>
            <feColorMatrix type="matrix" values="0 0 0 0 0 0 0 0 0 0 0 0 0 0 0 0 0 0 0.04 0"></feColorMatrix>
            <feBlend in2="BackgroundImageFix" mode="normal" result="effect1_dropShadow_572_52081"></feBlend>
            <feBlend in="SourceGraphic" in2="effect1_dropShadow_572_52081" mode="normal" result="shape"></feBlend>
        </filter>
        <filter color-interpolation-filters="sRGB" filterUnits="userSpaceOnUse" height="134" id="filter2_d_572_52081" width="262" x="416" y="252">
            <feFlood flood-opacity="0" result="BackgroundImageFix"></feFlood>
            <feColorMatrix in="SourceAlpha" result="hardAlpha" type="matrix" values="0 0 0 0 0 0 0 0 0 0 0 0 0 0 0 0 0 0 127 0"></feColorMatrix>
            <feOffset dy="1"></feOffset>
            <feGaussianBlur stdDeviation="1"></feGaussianBlur>
            <feColorMatrix type="matrix" values="0 0 0 0 0 0 0 0 0 0 0 0 0 0 0 0 0 0 0.04 0"></feColorMatrix>
            <feBlend in2="BackgroundImageFix" mode="normal" result="effect1_dropShadow_572_52081"></feBlend>
            <feBlend in="SourceGraphic" in2="effect1_dropShadow_572_52081" mode="normal" result="shape"></feBlend>
        </filter>
        <filter color-interpolation-filters="sRGB" filterUnits="userSpaceOnUse" height="134" id="filter3_d_572_52081" width="262" x="416" y="100">
            <feFlood flood-opacity="0" result="BackgroundImageFix"></feFlood>
            <feColorMatrix in="SourceAlpha" result="hardAlpha" type="matrix" values="0 0 0 0 0 0 0 0 0 0 0 0 0 0 0 0 0 0 127 0"></feColorMatrix>
            <feOffset dy="1"></feOffset>
            <feGaussianBlur stdDeviation="1"></feGaussianBlur>
            <feColorMatrix type="matrix" values="0 0 0 0 0 0 0 0 0 0 0 0 0 0 0 0 0 0 0.04 0"></feColorMatrix>
            <feBlend in2="BackgroundImageFix" mode="normal" result="effect1_dropShadow_572_52081"></feBlend>
            <feBlend in="SourceGraphic" in2="effect1_dropShadow_572_52081" mode="normal" result="shape"></feBlend>
        </filter>
    </defs>
</svg>