<svg stroke-linejoin="round" color="currentColor" viewBox="0 0 16 16">
    <path fill-rule="evenodd" clip-rule="evenodd" d="M14.5 8C14.5 11.5899 11.5899 14.5 8 14.5C4.41015 14.5 1.5 11.5899 1.5 8C1.5 4.41015 4.41015 1.5 8 1.5C11.5899 1.5 14.5 4.41015 14.5 8ZM16 8C16 12.4183 12.4183 16 8 16C3.58172 16 0 12.4183 0 8C0 3.58172 3.58172 0 8 0C12.4183 0 16 3.58172 16 8ZM4.5 8.97498H3.875V9.59998C3.875 11.4747 5.81046 12.8637 7.99817 12.8637C10.1879 12.8637 12.125 11.4832 12.125 9.59998V8.97498H11.5H4.5ZM7.99817 11.6137C6.59406 11.6137 5.63842 10.9482 5.28118 10.225H10.7202C10.3641 10.9504 9.40797 11.6137 7.99817 11.6137Z" fill="currentColor"></path>
    <path fill-rule="evenodd" clip-rule="evenodd" d="M6.15295 4.92093L5.375 3.5L4.59705 4.92093L3 5.21885L4.11625 6.39495L3.90717 8L5.375 7.30593L6.84283 8L6.63375 6.39495L7.75 5.21885L6.15295 4.92093ZM11.403 4.92093L10.625 3.5L9.84705 4.92093L8.25 5.21885L9.36625 6.39495L9.15717 8L10.625 7.30593L12.0928 8L11.8837 6.39495L13 5.21885L11.403 4.92093Z" fill="hsl(var(--amber-800))"></path>
</svg>