<svg height="16" stroke-linejoin="round" color="currentColor" viewBox="0 0 16 16" width="16">
    <path d="M14 8C14 11.3137 11.3137 14 8 14C4.68629 14 2 11.3137 2 8C2 4.68629 4.68629 2 8 2C11.3137 2 14 4.68629 14 8Z" fill="currentColor" fill-opacity="0.08"></path>
    <path fill-rule="evenodd" clip-rule="evenodd" d="M8 6C8.55228 6 9 5.55228 9 5C9 4.44772 8.55228 4 8 4C7.44771 4 7 4.44772 7 5C7 5.55228 7.44771 6 8 6ZM7 7H6.25V8.5H7H7.24999V10.5V11.25H8.74999V10.5V8C8.74999 7.44772 8.30227 7 7.74999 7H7Z" fill="currentColor"></path>
</svg>